<svg width="46" height="48" viewBox="0 0 46 48" fill="none" xmlns="http://www.w3.org/2000/svg">
<path d="M28 3.49999H5.5C3.567 3.49999 2 5.067 2 6.99999V42L2.00488 42.1797C2.09843 44.0292 3.62728 45.5 5.5 45.5H37.5L37.6797 45.4951C39.5292 45.4016 41 43.8727 41 42V20.5H43V42C43 44.9429 40.6888 47.345 37.7822 47.4922L37.7705 47.4932L37.5137 47.5H5.5C2.55705 47.5 0.15497 45.1888 0.0078125 42.2822L0.00683594 42.2705L0 42.0137V6.99999C0 3.96243 2.46243 1.49999 5.5 1.49999H28V3.49999Z" fill="white"/>
<path d="M38.0137 0.431633C38.4972 -0.105356 39.3221 -0.147058 39.8564 0.33886L45.0703 5.08202C45.6047 5.56815 45.6465 6.39823 45.1631 6.93554L20.6455 34.1758C20.5403 34.2926 20.4181 34.3845 20.2871 34.4541L20.2881 34.456L20.2754 34.46C20.1731 34.513 20.0658 34.552 19.9551 34.5762L10.5 38L12.9834 28.4814C13.0922 28.2611 13.1993 28.0897 13.3008 27.959C13.352 27.8577 13.4166 27.7612 13.4961 27.6728L38.0137 0.431633Z" fill="white"/>
</svg>
