<svg width="70" height="39" viewBox="0 0 70 39" fill="none" xmlns="http://www.w3.org/2000/svg">
<path d="M35.3977 26.2653L59.8533 0H63.6364C67.1509 0 70 2.85076 70 6.36735V32.6327C70 32.6758 69.997 32.7188 69.9961 32.7617L49.3896 12.7347L47.7273 14.4478L69.2939 35.4075L69.4283 35.2684C68.4263 37.4691 66.211 39 63.6364 39H6.36364C4.01843 39 1.97071 37.7299 0.866921 35.8404L24.0345 15.3183L22.4529 13.5306L0.0442782 33.3804C0.0155988 33.1351 0 32.8856 0 32.6327V6.36735C0 2.85076 2.8491 1.02555e-07 6.36364 0H10.9422L35.3977 26.2653Z" fill="white"/>
<path d="M35.3977 22.6837L13.9205 0H56.875L35.3977 22.6837Z" fill="white"/>
</svg>
