<svg width="51" height="52" viewBox="0 0 51 52" fill="none" xmlns="http://www.w3.org/2000/svg">
<mask id="path-1-inside-1_3397_629" fill="white">
<path d="M14.1765 22.2143C8.08824 29.9286 4.93137 30.5714 2 31.8571L7.41176 41.5C8.76471 40.8571 11.8765 39.3143 13.5 38.2857C15.5294 37 17.5588 34.4286 18.9118 33.1429C20.2647 31.8571 22.2941 28 22.2941 27.3571L23.6471 25.4286L25 24.1429C24.3235 33.7857 29.0588 35.7143 29.0588 35.7143C29.0588 35.7143 36.5 40.8571 43.9412 38.9286L47.9203 30.6907C44.5124 35.7142 37.8213 35.6993 33.7941 33.7857C28.3824 31.8571 28.6078 27.5714 29.0588 24.7857C31.0882 20.9286 35.1471 20.2857 37.8529 22.2143C37.8529 15.7857 30.4118 14.5 28.3824 14.5C25 14.5 20.9412 14.5 14.1765 22.2143Z"/>
</mask>
<path d="M14.1765 22.2143C8.08824 29.9286 4.93137 30.5714 2 31.8571L7.41176 41.5C8.76471 40.8571 11.8765 39.3143 13.5 38.2857C15.5294 37 17.5588 34.4286 18.9118 33.1429C20.2647 31.8571 22.2941 28 22.2941 27.3571L23.6471 25.4286L25 24.1429C24.3235 33.7857 29.0588 35.7143 29.0588 35.7143C29.0588 35.7143 36.5 40.8571 43.9412 38.9286L47.9203 30.6907C44.5124 35.7142 37.8213 35.6993 33.7941 33.7857C28.3824 31.8571 28.6078 27.5714 29.0588 24.7857C31.0882 20.9286 35.1471 20.2857 37.8529 22.2143C37.8529 15.7857 30.4118 14.5 28.3824 14.5C25 14.5 20.9412 14.5 14.1765 22.2143Z" fill="white"/>
<path d="M47.9203 30.6907L171.227 114.336C171.646 113.717 172.068 113.086 172.492 112.442L48 30.5714L-76.492 -51.2989C-76.1211 -51.8628 -75.7523 -52.4147 -75.3862 -52.9544L47.9203 30.6907ZM2 31.8571L-117.697 -241.047L-418.771 -108.994L-257.872 177.702L2 31.8571ZM14.1765 22.2143L-209.88 -174.262L-214.967 -168.46L-219.748 -162.403L14.1765 22.2143ZM28.3824 14.5L28.3824 -283.5L28.3819 -283.5L28.3824 14.5ZM37.8529 22.2143L-135.106 264.885L335.853 600.553V22.2143H37.8529ZM29.0588 24.7857L-234.665 -113.971L-257.332 -70.8911L-265.111 -22.8377L29.0588 24.7857ZM33.7941 33.7857L161.687 -235.375L148.051 -241.854L133.829 -246.922L33.7941 33.7857ZM47.9203 30.6907L316.256 160.305L-198.686 -136.609L47.9203 30.6907ZM43.9412 38.9286L118.705 327.398L252.266 292.782L312.277 168.543L43.9412 38.9286ZM29.0588 35.7143L198.489 -209.433L171.663 -227.974L141.462 -240.274L29.0588 35.7143ZM25 24.1429L322.269 44.9971L375.97 -720.486L-180.283 -191.874L25 24.1429ZM23.6471 25.4286L-181.635 -190.588L-203.214 -170.082L-220.309 -145.713L23.6471 25.4286ZM22.2941 27.3571L-221.662 -143.784L-275.706 -66.7467V27.3571H22.2941ZM13.5 38.2857L172.983 290.018L172.983 290.018L13.5 38.2857ZM7.41176 41.5L-252.46 187.345L-116.188 430.159L135.305 310.661L7.41176 41.5ZM2 31.8571L121.697 304.761C97.6052 315.328 141.804 297.792 172.914 276.923C208.228 253.235 232.491 226.611 248.101 206.831L14.1765 22.2143L-219.748 -162.403C-210.226 -174.468 -190.586 -196.913 -159.105 -218.031C-131.829 -236.328 -90.6738 -252.899 -117.697 -241.047L2 31.8571ZM14.1765 22.2143L238.232 218.691C223.404 235.6 191.176 267.732 138.494 289.983C111.585 301.348 85.6734 307.434 62.7415 310.308C42.6817 312.822 25.8701 312.5 28.3828 312.5L28.3824 14.5L28.3819 -283.5C22.9488 -283.5 -31.5898 -285.16 -93.398 -259.055C-150.646 -234.875 -188.287 -198.886 -209.88 -174.262L14.1765 22.2143ZM28.3824 14.5V312.5C-9.39532 312.5 -57.0718 305.116 -106.119 279.014C-134.076 264.136 -173.254 237.275 -206.114 191.113C-241.448 141.476 -260.147 82.3116 -260.147 22.2143H37.8529H335.853C335.853 -124.824 239.388 -212.258 173.876 -247.121C120.601 -275.473 68.1894 -283.5 28.3824 -283.5V14.5ZM37.8529 22.2143L210.812 -220.456C55.5168 -331.141 -151.821 -271.428 -234.665 -113.971L29.0588 24.7857L292.783 163.543C257.206 231.161 192.066 288.779 105.5 310.427C22.1858 331.263 -65.7028 314.351 -135.106 264.885L37.8529 22.2143ZM29.0588 24.7857L-265.111 -22.8377C-266.755 -12.6814 -278.295 50.7517 -252.958 125.394C-220.505 220.998 -146.757 285.8 -66.2408 314.494L33.7941 33.7857L133.829 -246.922C166.334 -235.339 204.271 -215.113 239.039 -181.12C274.492 -146.457 297.896 -106.001 311.414 -66.1801C335.624 5.14117 324.422 65.0385 323.229 72.4091L29.0588 24.7857ZM33.7941 33.7857L-94.0989 302.946C-40.3995 328.462 21.8449 338.931 84.706 329.63C153.172 319.5 237.301 282.344 294.527 197.99L47.9203 30.6907L-198.686 -136.609C-144.868 -215.939 -65.7892 -250.591 -2.52708 -259.951C55.1297 -268.482 112.015 -258.977 161.687 -235.375L33.7941 33.7857ZM47.9203 30.6907L-220.415 -98.9238L-224.395 -90.6859L43.9412 38.9286L312.277 168.543L316.256 160.305L47.9203 30.6907ZM43.9412 38.9286L-30.8229 -249.54C49.2213 -270.286 113.013 -250.465 138.189 -241.04C153.553 -235.288 165.956 -229.067 175.024 -224.031C179.732 -221.416 184.008 -218.86 187.837 -216.456C189.764 -215.246 191.611 -214.054 193.378 -212.887C194.263 -212.303 195.131 -211.723 195.981 -211.148C196.407 -210.86 196.829 -210.573 197.246 -210.288C197.455 -210.145 197.663 -210.002 197.87 -209.86C197.974 -209.789 198.077 -209.718 198.18 -209.646C198.232 -209.611 198.309 -209.558 198.335 -209.54C198.412 -209.487 198.489 -209.433 29.0588 35.7143C-140.371 280.862 -140.294 280.915 -140.217 280.969C-140.191 280.986 -140.114 281.04 -140.062 281.076C-139.958 281.147 -139.855 281.218 -139.75 281.29C-139.541 281.434 -139.33 281.578 -139.118 281.724C-138.693 282.014 -138.26 282.308 -137.821 282.606C-136.941 283.2 -136.031 283.809 -135.09 284.43C-133.21 285.672 -131.196 286.973 -129.051 288.319C-124.786 290.996 -119.87 293.94 -114.348 297.006C-103.653 302.946 -88.9248 310.332 -70.7697 317.129C-40.0126 328.643 31.2199 350.072 118.705 327.398L43.9412 38.9286ZM29.0588 35.7143C141.462 -240.274 141.705 -240.175 141.947 -240.076C142.028 -240.043 142.271 -239.943 142.432 -239.877C142.756 -239.744 143.081 -239.609 143.406 -239.474C144.056 -239.204 144.709 -238.93 145.364 -238.652C146.674 -238.097 147.993 -237.527 149.321 -236.941C151.977 -235.769 154.671 -234.535 157.397 -233.233C162.848 -230.63 168.447 -227.753 174.149 -224.568C185.551 -218.201 197.433 -210.571 209.376 -201.436C233.617 -182.895 257.028 -158.957 276.47 -129.11C317.437 -66.221 325.537 -1.57805 322.269 44.9971L25 24.1429L-272.269 3.28866C-276.213 59.5066 -266.084 129.935 -222.919 196.2C-202.377 227.734 -177.825 252.756 -152.717 271.961C-140.341 281.427 -128.094 289.283 -116.436 295.793C-110.606 299.049 -104.906 301.978 -99.3858 304.613C-96.6246 305.932 -93.9044 307.178 -91.2306 308.358C-89.8935 308.948 -88.5675 309.521 -87.2531 310.078C-86.5959 310.357 -85.9416 310.631 -85.2901 310.902C-84.9644 311.037 -84.6394 311.172 -84.3152 311.305C-84.1532 311.372 -83.9102 311.471 -83.8293 311.505C-83.587 311.604 -83.3446 311.702 29.0588 35.7143ZM25 24.1429L-180.283 -191.874L-181.635 -190.588L23.6471 25.4286L228.93 241.445L230.283 240.159L25 24.1429ZM23.6471 25.4286L-220.309 -145.713L-221.662 -143.784L22.2941 27.3571L266.25 198.499L267.603 196.57L23.6471 25.4286ZM22.2941 27.3571H-275.706C-275.706 -6.39633 -269.826 -32.2573 -267.64 -41.4454C-264.737 -53.6535 -261.622 -63.2712 -259.678 -68.9389C-255.772 -80.3281 -251.992 -89.0368 -250.022 -93.4352C-245.779 -102.91 -241.769 -110.478 -238.761 -115.836C-235.642 -121.395 -231.241 -128.781 -225.408 -137.25C-221.619 -142.751 -208.276 -162.057 -186.371 -182.873L18.9118 33.1429L224.194 249.159C260.111 215.028 279.311 178.832 280.982 175.854C284.666 169.29 289.268 160.558 293.934 150.138C296.115 145.268 300.064 136.142 304.087 124.414C306.089 118.577 309.248 108.809 312.182 96.4733C314.398 87.1574 320.294 61.191 320.294 27.3571H22.2941ZM18.9118 33.1429L-186.371 -182.873C-190.778 -178.685 -194.208 -175.175 -196.106 -173.207C-198.059 -171.182 -199.613 -169.517 -200.141 -168.95C-202.258 -166.681 -199.851 -169.275 -198.021 -171.173C-195.71 -173.568 -190.397 -178.999 -183.064 -185.523C-176.085 -191.732 -163.456 -202.377 -145.983 -213.447L13.5 38.2857L172.983 290.018C191.47 278.306 205.115 266.857 213.087 259.764C221.414 252.356 227.699 245.961 230.94 242.601C233.7 239.739 236.995 236.181 235.703 237.566C235.587 237.691 234.43 238.934 232.854 240.567C231.334 242.143 228.264 245.292 224.194 249.159L18.9118 33.1429ZM13.5 38.2857L-145.983 -213.447C-139.403 -217.615 -134.222 -220.508 -132.18 -221.638C-129.631 -223.047 -127.647 -224.086 -126.52 -224.669C-124.428 -225.751 -122.531 -226.686 -120.481 -227.661L7.41176 41.5L135.305 310.661C135.7 310.473 154.147 301.951 172.983 290.018L13.5 38.2857ZM7.41176 41.5L267.283 -104.345L261.872 -113.988L2 31.8571L-257.872 177.702L-252.46 187.345L7.41176 41.5Z" fill="white" mask="url(#path-1-inside-1_3397_629)"/>
<path d="M25.5 2.5C38.4787 2.5 49 13.0213 49 26C49 38.9787 38.4787 49.5 25.5 49.5C12.5213 49.5 2 38.9787 2 26C2 13.0213 12.5213 2.5 25.5 2.5Z" stroke="white" stroke-width="4"/>
</svg>
