<svg width="32" height="32" viewBox="0 0 32 32" fill="none" xmlns="http://www.w3.org/2000/svg">
<path d="M10.4766 19.2061H22.3047C25.2056 19.2061 27.6369 21.1438 28.3496 23.7627C26.9474 26.961 24.2563 29.4856 20.916 30.7031C19.4431 31.1954 17.8719 31.4724 16.2393 31.4971C10.9387 31.4377 6.40549 28.2673 4.43066 23.7617C5.14357 21.1433 7.57577 19.2061 10.4766 19.2061ZM16 0.5C24.5604 0.5 31.5 7.43959 31.5 16C31.5 18.8462 30.7314 21.5123 29.3926 23.8047L29.3643 23.6875C28.6003 20.5395 25.7265 18.2061 22.3047 18.2061H10.4766C7.05479 18.2061 4.18091 20.5393 3.41699 23.6875L3.37793 23.8477L3.44238 24C3.96933 25.2465 4.67578 26.4009 5.53125 27.4307C2.43889 24.597 0.5 20.5249 0.5 16C0.500001 7.43959 7.43959 0.500001 16 0.5ZM20.96 11.6445C20.9599 14.343 18.7327 16.5449 15.9678 16.5449C13.2031 16.5447 10.9766 14.3429 10.9766 11.6445C10.9766 8.9461 13.203 6.74436 15.9678 6.74414C18.7327 6.74414 20.96 8.94596 20.96 11.6445ZM21.96 11.6445C21.96 8.3779 19.2691 5.74414 15.9678 5.74414C12.6666 5.74437 9.97656 8.37804 9.97656 11.6445C9.97665 14.911 12.6667 17.5447 15.9678 17.5449C19.2691 17.5449 21.9599 14.9111 21.96 11.6445Z" stroke="white"/>
</svg>
